#!OML:ASF H:\ManfredObstacles\Project 1\Capture day 2\Session 1\male.ASF
:FULLY-SPECIFIED
:DEGREES
519
root 3.57016 15.5363 -27.2217 -160.878 2.18174 180.191
lowerback 9.58756 2.77739 0.438787
upperback 3.34337 4.00731 -0.154409
thorax -1.8534 2.1153 -0.847492
lowerneck -34.2146 -0.992809 0.318572
upperneck 33.4647 -2.23732 -0.78518
head 18.2711 -1.21556 -1.06572
rclavicle -2.36554e-014 -1.94809e-014
rhumerus -31.8516 17.8141 -94.4372
rradius 98.0923
rwrist 9.24093
rhand -17.7364 -2.09454
rfingers 7.12502
rthumb 8.52471 -31.9025
lclavicle -2.36554e-014 -1.94809e-014
lhumerus -58.1179 -20.9404 92.9661
lradius 90.7701
lwrist -23.4153
lhand -20.079 6.61166
lfingers 7.12502
lthumb 6.26354 36.4991
rfemur -14.7302 5.60822 23.354
rtibia 38.681
rfoot -0.405471 -21.4733
rtoes -35.8009
lfemur -49.1601 1.05367 -16.1025
ltibia 90.7368
lfoot 8.74095 19.3055
ltoes -5.2798
520
root 3.58573 15.6317 -27.5431 -160.765 1.64353 180.133
lowerback 9.27563 3.02432 0.443695
upperback 3.15529 4.30968 -0.246351
thorax -1.86427 2.256 -0.964586
lowerneck -34.5436 -1.38683 0.0543306
upperneck 33.7096 -2.84544 -0.429065
head 18.4886 -1.42519 -1.01475
rclavicle 3.89618e-014 -1.07344e-014
rhumerus -31.7839 18.3429 -94.3435
rradius 99.2882
rwrist 9.29481
rhand -17.5782 -1.90107
rfingers 7.12502
rthumb 8.67739 -31.7027
lclavicle 3.89618e-014 -1.07344e-014
lhumerus -59.1293 -21.2522 92.7187
lradius 91.4951
lwrist -23.0942
lhand -20.125 6.29916
lfingers 7.12502
lthumb 6.21914 36.1879
rfemur -12.803 5.56089 23.5708
rtibia 36.5282
rfoot 2.04716 -20.441
rtoes -35.6903
lfemur -50.4667 0.643735 -16.2595
ltibia 88.4776
lfoot 8.50147 19.3126
ltoes -5.75779
521
root 3.59919 15.7303 -27.8716 -160.646 1.06867 180.043
lowerback 8.94385 3.22374 0.414615
upperback 2.97018 4.5466 -0.348532
thorax -1.86277 2.36448 -1.06321
lowerneck -34.8402 -1.74456 -0.167211
upperneck 33.9204 -3.42178 -0.0777542
head 18.6868 -1.6157 -0.964823
rclavicle -2.64384e-014 -1.19271e-015
rhumerus -31.8378 18.8278 -94.2654
rradius 100.428
rwrist 9.4103
rhand -17.3788 -1.72925
rfingers 7.12502
rthumb 8.86983 -31.5228
lclavicle -2.64384e-014 -1.19271e-015
lhumerus -60.1142 -21.5087 92.4576
lradius 92.2062
lwrist -22.6579
lhand -20.1824 5.99218
lfingers 7.12502
lthumb 6.16376 35.8825
rfemur -10.9227 5.36376 23.7576
rtibia 34.3585
rfoot 4.65291 -19.3281
rtoes -35.4909
lfemur -51.5461 0.178125 -16.4614
ltibia 85.8763
lfoot 8.37447 19.2988
ltoes -6.15426
522
root 3.61126 15.8311 -28.2072 -160.53 0.484459 179.912
lowerback 8.58511 3.3723 0.312133
upperback 2.80391 4.71208 -0.459362
thorax -1.83253 2.43848 -1.11868
lowerneck -35.1362 -2.03751 -0.293967
upperneck 34.0755 -3.92743 0.222754
head 18.856 -1.77147 -0.936063
rclavicle -4.81059e-014 -8.74653e-015
rhumerus -31.9844 19.3129 -94.2257
rradius 101.495
rwrist 9.52776
rhand -17.1719 -1.57869
rfingers 7.12502
rthumb 9.06946 -31.3637
lclavicle -4.81059e-014 -8.74653e-015
lhumerus -61.0553 -21.6784 92.1758
lradius 92.9158
lwrist -22.1803
lhand -20.2289 5.7595
lfingers 7.12502
lthumb 6.11881 35.6511
rfemur -9.07716 5.06276 23.889
rtibia 32.1746
rfoot 7.40598 -18.2291
rtoes -35.1361
lfemur -52.3705 -0.313977 -16.7155
ltibia 82.9492
lfoot 8.35298 19.2294
ltoes -6.50645
523
root 3.62258 15.9325 -28.5484 -160.427 -0.0836218 179.732
lowerback 8.21332 3.72504 0.160061
upperback 2.6635 4.77351 -0.56874
thorax -1.77353 2.30638 -1.1272
lowerneck -35.4192 -2.28246 -0.362047
upperneck 34.18 -4.37155 0.482636
head 18.9944 -1.90037 -0.91978
rclavicle -3.18055e-015 -8.34896e-015
rhumerus -32.2142 19.7929 -94.2016
rradius 102.481
rwrist 9.58021
rhand -16.9868 -1.447
rfingers 7.12502
rthumb 9.24803 -31.2242
lclavicle -3.18055e-015 -8.34896e-015
lhumerus -61.9537 -21.79 91.9097
lradius 93.609
lwrist -21.7707
lhand -20.2804 5.63323
lfingers 7.12502
lthumb 6.06907 35.5263
rfemur -7.26319 4.7375 23.9542
rtibia 30.0032
rfoot 10.3807 -17.233
rtoes -34.665
lfemur -52.9288 -0.806872 -17.0252
ltibia 79.7164
lfoot 8.42002 19.0185
ltoes -6.72528
524
root 3.63294 16.033 -28.8947 -160.315 -0.621541 179.507
lowerback 7.78957 3.79946 -0.105807
upperback 2.54502 4.86785 -0.691371
thorax -1.67189 2.36129 -1.08975
lowerneck -35.7217 -2.50323 -0.410469
upperneck 34.2524 -4.77103 0.710953
head 19.1198 -2.01252 -0.910236
rclavicle -6.71892e-014 1.43125e-014
rhumerus -32.5009 20.2761 -94.1673
rradius 103.363
rwrist 9.51166
rhand -16.8728 -1.35248
rfingers 7.12502
rthumb 9.3581 -31.1248
lclavicle -6.71892e-014 1.43125e-014
lhumerus -62.7872 -21.8853 91.688
lradius 94.2833
lwrist -21.4439
lhand -20.3556 5.63694
lfingers 7.12502
lthumb 5.99648 35.5321
rfemur -5.51034 4.44518 23.9498
rtibia 27.8839
rfoot 13.5147 -16.4173
rtoes -34.0233
lfemur -53.2411 -1.28775 -17.3828
ltibia 76.2054
lfoot 8.53786 18.6105
ltoes -6.84817
525
root 3.64412 16.1314 -29.2433 -160.195 -1.09007 179.207
lowerback 7.34767 3.86396 -0.511116
upperback 2.44397 4.93884 -0.822286
thorax -1.55372 2.40308 -0.978807
lowerneck -36.0217 -2.69597 -0.453775
upperneck 34.309 -5.12013 0.91824
head 19.2363 -2.10736 -0.89866
rclavicle -7.95139e-015 4.77083e-015
rhumerus -32.8414 20.782 -94.1275
rradius 104.136
rwrist 9.34617
rhand -16.8275 -1.30579
rfingers 7.12502
rthumb 9.40181 -31.0761
lclavicle -7.95139e-015 4.77083e-015
lhumerus -63.545 -21.9551 91.5075
lradius 94.948
lwrist -21.1983
lhand -20.4199 5.76863
lfingers 7.12502
lthumb 5.9344 35.6655
rfemur -3.85057 4.27516 23.8564
rtibia 25.888
rfoot 16.7862 -15.8127
rtoes -32.981
lfemur -53.3122 -1.72721 -17.8119
ltibia 72.4406
lfoot 8.67432 17.9161
ltoes -6.90997
526
root 3.65469 16.2258 -29.5942 -160.054 -1.49972 178.869
lowerback 6.87084 3.91446 -0.993232
upperback 2.35225 4.9886 -0.961165
thorax -1.41278 2.43302 -0.828313
lowerneck -36.3599 -2.85235 -0.459435
upperneck 34.3752 -5.41541 1.07619
head 19.3647 -2.1829 -0.904366
rclavicle 3.85642e-014 -2.78299e-015
rhumerus -33.2377 21.3112 -94.1005
rradius 104.787
rwrist 9.06406
rhand -16.8687 -1.30279
rfingers 7.12502
rthumb 9.36206 -31.0749
lclavicle 3.85642e-014 -2.78299e-015
lhumerus -64.2221 -22.0176 91.3601
lradius 95.6022
lwrist -21.0296
lhand -20.5034 5.96849
lfingers 7.12502
lthumb 5.85384 35.8676
rfemur -2.31362 4.20585 23.7111
rtibia 24.0931
rfoot 20.0548 -15.3979
rtoes -31.4476
lfemur -53.1714 -2.13272 -18.272
ltibia 68.4732
lfoot 8.76029 16.9091
ltoes -6.9425
527
root 3.66456 16.3146 -29.9463 -159.906 -1.84089 178.517
lowerback 6.40094 3.9643 -1.51554
upperback 2.25348 5.03803 -1.10775
thorax -1.28578 2.46155 -0.663934
lowerneck -36.7226 -2.99925 -0.476824
upperneck 34.4866 -5.69297 1.22235
head 19.5265 -2.2545 -0.911408
rclavicle -5.22804e-014 2.78299e-015
rhumerus -33.708 21.8098 -94.0888
rradius 105.317
rwrist 8.72994
rhand -16.9483 -1.32794
rfingers 7.12502
rthumb 9.28523 -31.1035
lclavicle -5.22804e-014 2.78299e-015
lhumerus -64.8352 -22.1067 91.2819
lradius 96.251
lwrist -20.853
lhand -20.661 6.1863
lfingers 7.12502
lthumb 5.70163 36.0896
rfemur -0.932335 4.23277 23.5431
rtibia 22.5955
rfoot 23.2417 -15.1147
rtoes -29.2389
lfemur -52.8231 -2.48981 -18.7392
ltibia 64.3565
lfoot 8.80213 15.5652
ltoes -7.00686
